# xmcd CD database file
# Copyright (C) 1993-1998 Ti Kan
#
# Track frame offsets:
#	182
#	11922
#	24877
#	44317
#	57762
#	69245
#	83460
#	102107
#	113785
#	125462
#	136707
#	148232
#	158442
#	169455
#
# Disc length: 2456 seconds
#
# Revision: 1
# Processed by: cddbd v1.4b41PL1 Copyright (c) Steve Scherf et al.
# Submitted via: CDValet v3.31 - Copyright (c) 1997 Greg Leichner
#
DISCID=ab09960e
DTITLE=Sonny Boy Williamson - The Silver Collection
DYEAR=1900
DGENRE=
TTITLE0=Don't Start Me Talkin'
TTITLE1=Keep It To Yourself
TTITLE2=Nine Below Zero
TTITLE3=Sad To Be Alone
TTITLE4=Bring It On Home
TTITLE5=Help Me
TTITLE6='99'
TTITLE7=Born Blind
TTITLE8=Stop Crying
TTITLE9=Got To Move
TTITLE10=She Got Next To Me
TTITLE11=Too Close together
TTITLE12=Understand My Life
TTITLE13=I Can't Be Alone
EXTD=
EXTT0=
EXTT1=
EXTT2=
EXTT3=
EXTT4=
EXTT5=
EXTT6=
EXTT7=
EXTT8=
EXTT9=
EXTT10=
EXTT11=
EXTT12=
EXTT13=
PLAYORDER=
